<?xml version="1.0" ?><svg height="512" id="svg2" style="fill-rule:evenodd" version="1.1" viewBox="0 0 512 512" width="512" xml:space="preserve" xmlns="http://www.w3.org/2000/svg" xmlns:cc="http://creativecommons.org/ns#" xmlns:dc="http://purl.org/dc/elements/1.1/" xmlns:rdf="http://www.w3.org/1999/02/22-rdf-syntax-ns#" xmlns:svg="http://www.w3.org/2000/svg"><defs id="defs4"><style id="style6" type="text/css"/></defs><g id="g2990" transform="translate(2e-6,1.9999999e-6)"><g id="g2989" style="fill:#3476b2;fill-opacity:1" transform="matrix(19.692202,0,0,19.692202,-216.61285,-216.61285)"><g id="Слой_x0020_1" style="fill:#3476b2;fill-opacity:1;fill-rule:evenodd" transform="translate(-0.49206,0.01815)"><g id="Document" style="fill:#3476b2;fill-opacity:1"><g id="Spread" style="fill:#3476b2;fill-opacity:1"><g id="Layer_x0020_1" style="fill:#3476b2;fill-opacity:1"><path d="M 21.2186,36.5654 25.05331,25.096 28.4787,36.3571 c -1.25858,0.402898 -2.59616,0.624 -3.98665,0.624 -1.13348,0 -2.22954,-0.14778 -3.27345,-0.415748 z M 11.49199,23.9815 c 0,-7.17619 5.82387,-12.9989 13.0001,-12.9989 3.43181,0 6.55861,1.33228 8.88113,3.51194 -0.126614,-0.03061 -0.260031,-0.05065 -0.39874,-0.05443 -2.24655,-0.07597 -3.69449,2.12523 -2.10369,4.06413 0.500031,0.607748 1.51597,1.16636 1.87843,2.2371 l -2.65587,8.70803 -2.43591,-8.00391 c -0.33222,-1.09342 -0.492094,-1.74425 -0.492094,-1.95477 0,-0.197291 0.0412,-0.370772 0.130772,-0.520063 0.08769,-0.154583 0.207874,-0.266457 0.361323,-0.328063 0.221102,-0.09184 0.582425,-0.146646 1.08775,-0.154583 l 0,-0.512126 -7.21058,0 0,0.512126 c 0.457323,0 0.808063,0.07748 1.04655,0.234709 0.23622,0.15874 0.445606,0.421417 0.632315,0.78652 0.179906,0.36548 0.437291,1.09342 0.778583,2.18683 l 0.315969,1.03748 -2.2628,7.40901 -2.69858,-8.44649 c -0.359811,-1.13991 -0.535937,-1.88258 -0.535937,-2.23332 0,-0.26948 0.08542,-0.492094 0.25852,-0.674646 0.168189,-0.179906 0.514772,-0.281197 1.03483,-0.300094 l 0,-0.512126 -6.45619,0 0,0.512126 c 0.470929,0.05745 0.801638,0.246803 0.998929,0.570709 0.199937,0.322772 0.54652,1.25858 1.04391,2.80252 l 4.59213,14.4227 c -5.11219,-1.74917 -8.7908,-6.59717 -8.7908,-12.3024 z m 18.0654,11.9747 3.93865,-13.1323 c 0.463748,-1.16523 1.79603,-4.43981 1.83609,-5.36769 0,-0.262677 -0.02419,-0.516283 -0.06954,-0.754772 1.40409,2.07609 2.22954,4.58268 2.22954,7.28013 0,5.376 -3.27496,9.99458 -7.93474,11.9747 z" id="_313260432" style="fill:#3476b2;fill-opacity:1"/></g><g id="Layer_1" style="fill:#3476b2;fill-opacity:1"/></g></g></g></g></g></svg>